# xmcd
#
# Track frame offsets:
#	183
#	13148
#	22545
#	34268
#	48645
#	59708
#	74553
#	85183
#	96585
#	108560
#	119393
#	132373
#	146335
#	156898
#	170718
#	181250
#
# Disc length: 2603
#
# Revision: 2
# Processed by: cddbd v1.5.1PL0 Copyright (c) Steve Scherf et al.
# Submitted via: dBpowerAMP V4.0
# Normalized: r1:TDELIM( - )
#
DISCID=e70a2910
DTITLE=Various Artist - Country Favorites
DYEAR=1993
DGENRE=Country
TTITLE0=Kenny Rogers - Ruby Don't Take Your Love To Town
TTITLE1=Frankie Laine - Rawhide
TTITLE2=Patsy Cline - Walking  After Midnight
TTITLE3=Freddie Fender - Wasted Days And Wasted Nights
TTITLE4=Guy Mitchell - Singing The Blues
TTITLE5=Jeannie C. Roley - Harper Valley PTA
TTITLE6=Conway Twitty - It's Only Make Believe
TTITLE7=Dave Dudley - Six Days On The Road
TTITLE8=Ricky Skaggs - Are You Proud Of America
TTITLE9=Jerry Wallace - Primrose Lane
TTITLE10=Faron Young - Four In The Morning
TTITLE11=Barbara Fairchild - Teddy Bear Song
TTITLE12=Barry Salder - Ballad Of The Green Berets
TTITLE13=Willie Nelson - Home Is Where You're Happy
TTITLE14=Ferlin Husky - Wings Of A Dove
TTITLE15=George Jones - A good Year For The Roses
EXTD=
EXTT0=
EXTT1=
EXTT2=
EXTT3=
EXTT4=
EXTT5=
EXTT6=
EXTT7=
EXTT8=
EXTT9=
EXTT10=
EXTT11=
EXTT12=
EXTT13=
EXTT14=
EXTT15=
PLAYORDER=
